<?xml version="1.0" encoding="iso-8859-1"?>
<!-- Generator: Adobe Illustrator 19.0.0, SVG Export Plug-In . SVG Version: 6.00 Build 0)  -->
<svg version="1.1" id="Capa_1" xmlns="http://www.w3.org/2000/svg" xmlns:xlink="http://www.w3.org/1999/xlink" x="0px" y="0px"
	 viewBox="0 0 512 512" style="enable-background:new 0 0 512 512;" xml:space="preserve">
<path style="fill:#FF6C3F;" d="M425.122,242.49c-3.262-0.053-6.484,0.072-9.658,0.364c-3.323,0.306-5.875-2.868-4.955-6.076
	c3.021-10.54,4.55-21.709,4.335-33.269c-1.146-61.661-52.319-111.305-113.987-110.664c-53.729,0.558-98.452,38.678-109.169,89.348
	c-0.665,3.146-4.158,4.759-6.973,3.206c-17.522-9.672-37.619-15.252-59.005-15.438C57.237,169.363,0.625,224.931,0.005,293.405
	c-0.603,66.594,51.044,121.25,116.429,125.482l-0.023,0.273h307.247c49.05,0,88.764-39.975,88.338-89.124
	C511.584,282.352,472.802,243.266,425.122,242.49z"/>
<path style="fill:#C9283E;" d="M511.992,330.037c0.289,32.571-17.06,61.125-43.084,76.656c8.034-13.435,12.599-29.194,12.454-46.016
	c-0.413-47.689-39.201-86.776-86.88-87.551c-3.263-0.052-6.485,0.072-9.656,0.361c-3.325,0.31-5.876-2.861-4.957-6.072
	c3.026-10.544,4.554-21.707,4.337-33.273C383.06,172.48,331.89,122.839,270.218,123.48c-22.864,0.237-44.096,7.27-61.775,19.198
	c20.055-29.752,53.927-49.424,92.415-49.827c61.662-0.64,112.841,49.001,113.988,110.662c0.207,11.556-1.322,22.729-4.337,33.263
	c-0.919,3.212,1.632,6.382,4.957,6.082c3.17-0.299,6.392-0.423,9.656-0.372C472.802,243.27,511.579,282.347,511.992,330.037z"/>
<g>
</g>
<g>
</g>
<g>
</g>
<g>
</g>
<g>
</g>
<g>
</g>
<g>
</g>
<g>
</g>
<g>
</g>
<g>
</g>
<g>
</g>
<g>
</g>
<g>
</g>
<g>
</g>
<g>
</g>
</svg>
