<svg xmlns="http://www.w3.org/2000/svg" xmlns:xlink="http://www.w3.org/1999/xlink" width="654.618" height="1471.415" viewBox="0 0 654.618 1471.415">
  <defs>
    <linearGradient id="linear-gradient" x1="0.5" y1="1" x2="0.5" y2="-0.001" gradientUnits="objectBoundingBox">
      <stop offset="0" stop-color="gray" stop-opacity="0.251"/>
      <stop offset="0.54" stop-color="gray" stop-opacity="0.122"/>
      <stop offset="1" stop-color="gray" stop-opacity="0.102"/>
    </linearGradient>
    <linearGradient id="linear-gradient-2" y2="0" xlink:href="#linear-gradient"/>
  </defs>
  <g id="Group_1" data-name="Group 1" transform="translate(-136.18 -242.585)">
    <path id="Path_105" data-name="Path 105" d="M738.043,702.154c0-17.478-15.732-31.575-35.141-31.575s-35.141,14.172-35.141,31.575c0,14.729,11.144,27.081,26.356,30.609v24.759h17.571V732.764C726.842,729.233,738.043,716.9,738.043,702.154Z" transform="translate(-313.099 660.023)" fill="url(#linear-gradient)"/>
    <circle id="Ellipse_26" data-name="Ellipse 26" cx="29.272" cy="29.272" r="29.272" transform="translate(359.676 1333.983)" fill="#f8c198"/>
    <rect id="Rectangle_56" data-name="Rectangle 56" width="14.636" height="29.272" transform="translate(381.63 1385.228)" fill="#f8c198"/>
    <rect id="Rectangle_57" data-name="Rectangle 57" width="58.544" height="131.743" rx="8" transform="translate(359.676 1403.523)" fill="#605b38"/>
    <circle id="Ellipse_28" data-name="Ellipse 28" cx="38.317" cy="38.317" r="38.317" transform="translate(486.776 1327.408)" fill="url(#linear-gradient-2)"/>
    <circle id="Ellipse_29" data-name="Ellipse 29" cx="34.64" cy="34.64" r="34.64" transform="translate(490.453 1331.085)" fill="#f8c198"/>
    <rect id="Rectangle_58" data-name="Rectangle 58" width="17.329" height="34.64" transform="translate(516.419 1391.71)" fill="#f8c198"/>
    <path id="Path_108" data-name="Path 108" d="M858.388,721.285h-42.9a14.655,14.655,0,0,0-11.961,6.241c-32.6,4.235-99.666,10.773-106.464-6.241l-3.12,2.34a34.267,34.267,0,0,0-2.284-6.222c-4.309-8.99-11.44-14.543-15.936-12.389s-4.662,11.144-.353,20.171a32.137,32.137,0,0,0,5.572,8.21l-1.857,1.43S747.671,763.707,800.9,760.1V869.075a14.692,14.692,0,0,0,14.654,14.654h42.9a14.692,14.692,0,0,0,14.655-14.655V735.919a14.692,14.692,0,0,0-14.729-14.636Z" transform="translate(-309.261 689.148)" fill="url(#linear-gradient-2)"/>
    <rect id="Rectangle_59" data-name="Rectangle 59" width="69.28" height="155.889" rx="8" transform="translate(490.434 1413.367)" fill="#6c63ff"/>
    <path id="Path_109" data-name="Path 109" d="M814.315,718.7s-110.42,18.091-119.076-3.566l-17.329,13s82.281,34.64,134.232,21.657S814.315,718.7,814.315,718.7Z" transform="translate(-304.397 698.218)" fill="#6c63ff"/>
    <ellipse id="Ellipse_30" data-name="Ellipse 30" cx="8.655" cy="17.329" rx="8.655" ry="17.329" transform="translate(362.571 1401.447) rotate(-25.54)" fill="#f8c198"/>
    <path id="Path_110" data-name="Path 110" d="M741.3,674.624a4.383,4.383,0,0,1,4.346,2.544c3.566-7.8,12-12.574,20.431-13.67s17.106.947,25.223,3.715c10.382,3.547,20.542,8.451,28.362,16.14s13,18.574,12.092,29.477c-.706,8.042-4.588,15.416-8.414,22.509-2.359,4.4-4.922,8.971-9.138,11.626-8.8,5.572-21.286-.316-26-9.584-1.56-3.065-2.526-6.408-4.254-9.287-5.219-8.99-16.029-12.667-25.335-17.329C742.341,702.5,741.06,691.136,741.3,674.624Z" transform="translate(-250.068 653.694)" fill="url(#linear-gradient-2)"/>
    <rect id="Rectangle_60" data-name="Rectangle 60" width="312.78" height="270.228" rx="16" transform="translate(324.795 1443.772)" fill="#ff8965"/>
    <path id="Rectangle_61" data-name="Rectangle 61" d="M0,188.168v0Z" transform="translate(334.063 1469.772)" fill="#8982ff"/>
    <line id="Line_1" data-name="Line 1" y1="304.272" x2="25.679" transform="translate(626.821 1139.5)" fill="none" stroke="#ad7676" stroke-miterlimit="10" stroke-width="2"/>
    <path id="Line_2" data-name="Line 2" d="M42.6,521.419,22.68,207.242" transform="translate(297.5 929.5)" fill="none" stroke="#ad7676" stroke-width="2"/>
    <path id="Path_111" data-name="Path 111" d="M746.132,704.513a34.622,34.622,0,0,1,32-34.454c-.873,0-1.746-.13-2.637-.13a34.64,34.64,0,1,0,0,69.28,17.8,17.8,0,0,0,2.637-.13A34.621,34.621,0,0,1,746.132,704.513Z" transform="translate(-250.424 659.466)" fill="#fff" opacity="0.2"/>
    <path id="Path_112" data-name="Path 112" d="M675.168,702.652a34.621,34.621,0,0,1,32.04-34.508c-.873,0-1.746-.13-2.637-.13a34.64,34.64,0,0,0,0,69.28,17.8,17.8,0,0,0,2.637-.13,34.621,34.621,0,0,1-32.039-34.508Z" transform="translate(-311.238 657.817)" fill="#fff" opacity="0.2"/>
    <path id="Path_113" data-name="Path 113" d="M693.477,734.482a35.058,35.058,0,0,1,5.238,4.272c6.222,7.745-5.572,19.744-1.151,28.659,1.95,3.938,6.594,5.943,8.674,9.807,3.956,7.337-2.674,18.072,3.065,24.146,1.542,1.616,3.715,2.563,4.922,4.458,2.322,3.715-.93,8.655-.409,13,.651,5.572,6.743,8.544,12,10.51,4.476,1.671,10.346,3.009,13.394-.687,1.467-1.857,1.746-4.291,3.12-6.167,2.563-3.51,7.727-3.529,11.5-5.684,5.851-3.343,7.281-11.144,7.281-17.849s-.668-14.023,3.009-19.688c4.161-6.427,12.8-8.822,16.958-15.249,6.3-9.77-.651-23.422,3.845-34.138,1.56-3.715,4.421-6.854,5.348-10.754,1.542-6.445-2.582-13-7.429-17.329s-10.9-7.726-15.009-13c-2.879-3.715-4.755-8.079-8.154-11.255-8.246-7.689-21.36-4.94-32.374-7.429-10.2-2.21-19.6-9.194-29.978-8.024-9.083,1.023-16.178,8.005-22.509,14.6a11.685,11.685,0,0,0-3.529,5.424c-1.857,8.971,6.854,18.2,10.68,24.777C686.845,715.685,685.341,727.665,693.477,734.482Z" transform="translate(-310.304 652.622)" fill="#263238" stroke="#263238" stroke-width="1"/>
    <g id="Group_13" data-name="Group 13" transform="translate(360.633 1314.814)" opacity="0.2">
      <path id="Path_114" data-name="Path 114" d="M674.737,683.83c6.334-6.594,13.429-13.577,22.509-14.6,10.364-1.17,19.781,5.813,29.978,8.024,11.014,2.4,24.146-.353,32.374,7.429,3.4,3.176,5.275,7.615,8.154,11.255,4.1,5.182,10.085,8.507,15.008,13a23.96,23.96,0,0,1,7.336,10.922,2.569,2.569,0,0,1,.186-.613c1.542-6.445-2.582-13-7.522-17.329s-10.9-7.727-15.007-13c-2.879-3.715-4.755-8.079-8.154-11.255-8.247-7.689-21.359-4.94-32.374-7.429-10.2-2.21-19.595-9.194-29.978-8.024-9.083,1.023-16.178,8.005-22.509,14.6a11.681,11.681,0,0,0-3.529,5.424,14.075,14.075,0,0,0,.241,6.166A13.651,13.651,0,0,1,674.737,683.83Z" transform="translate(-670.976 -662.08)" fill="#fff"/>
      <path id="Path_115" data-name="Path 115" d="M694.7,743.43A17.254,17.254,0,0,0,694.07,749a8.021,8.021,0,0,0,.5,2.006C695.166,748.371,695.816,745.714,694.7,743.43Z" transform="translate(-651.193 -592.333)" fill="#fff"/>
      <path id="Path_116" data-name="Path 116" d="M690.774,729.59a33.957,33.957,0,0,0-.223,9.287A34.793,34.793,0,0,0,690.774,729.59Z" transform="translate(-654.379 -604.198)" fill="#fff"/>
      <path id="Path_117" data-name="Path 117" d="M731.875,717.95a86.389,86.389,0,0,0-.316-12.11A85.909,85.909,0,0,0,731.875,717.95Z" transform="translate(-619.105 -624.561)" fill="#fff"/>
      <path id="Path_118" data-name="Path 118" d="M719.48,738.2v-2.99C719.5,736.213,719.48,737.216,719.48,738.2Z" transform="translate(-629.389 -599.38)" fill="#fff"/>
      <path id="Path_119" data-name="Path 119" d="M688.283,708.42c-1.337,5.851-4.736,12.278-3.065,17.738C686.519,720.047,690.083,713.6,688.283,708.42Z" transform="translate(-659.151 -622.349)" fill="#fff"/>
    </g>
    <path id="Path_120" data-name="Path 120" d="M742.712,675.3a4.124,4.124,0,0,1,4.086,2.4c3.362-7.429,11.293-11.85,19.317-12.89s16.122.892,23.775,3.51c9.788,3.343,19.354,7.968,26.728,15.212s12.3,17.478,11.386,27.86c-.669,7.578-4.328,14.524-7.931,21.211-2.229,4.142-4.644,8.451-8.618,10.958-8.3,5.219-20.059-.3-24.536-9.027-1.467-2.879-2.377-6.036-4.012-8.822-4.922-8.47-15.119-11.924-23.867-16.326C743.677,701.6,742.471,690.881,742.712,675.3Z" transform="translate(-248.86 654.822)" fill="#263238"/>
    <path id="Path_121" data-name="Path 121" d="M742.707,678.817a4.123,4.123,0,0,1,4.086,2.4c3.362-7.43,11.293-11.85,19.317-12.89s16.122.892,23.774,3.51c9.788,3.343,19.354,7.968,26.728,15.212a37.147,37.147,0,0,1,11.424,23.514c.613-10.048-4.235-19.948-11.423-27.025s-16.939-11.869-26.728-15.212c-7.653-2.619-15.769-4.551-23.774-3.51s-15.955,5.572-19.317,12.89a4.123,4.123,0,0,0-4.086-2.4v4.383A6.867,6.867,0,0,1,742.707,678.817Z" transform="translate(-248.855 654.832)" fill="#fff" opacity="0.2"/>
    <path id="Path_104" data-name="Path 104" d="M1131.2,549.043c0,276.58-155.1,500.8-320.241,500.8S476.58,825.639,476.58,549.043,645.827,48.24,810.972,48.24,1131.2,272.535,1131.2,549.043Z" transform="translate(-340.4 194.451)" fill="#ff6c3f"/>
    <path id="Path_124" data-name="Path 124" d="M728.156,82.267s-377.788,431.819,0,928.684l124.759-.427S508.5,600.046,837.106,51.1l-61.5,14.023Z" transform="translate(-341.659 196.902)" fill="#fff" opacity="0.2"/>
    <path id="Path_125" data-name="Path 125" d="M885.156,77.3s377.788,438.338,0,935.259l-124.759-.427S1104.81,598.165,776.2,49.2l61.46,12.278Z" transform="translate(-344.667 195.274)" fill="#fff" opacity="0.2"/>
    <ellipse id="Ellipse_29-2" data-name="Ellipse 29" cx="65.64" cy="57.64" rx="65.64" ry="57.64" transform="translate(408.453 243.085)" fill="#ff5f2e" stroke="#ff6c3f" stroke-width="1"/>
  </g>
</svg>
