<svg id="Capa_1" enable-background="new 0 0 512 512" height="512" viewBox="0 0 512 512" width="512" xmlns="http://www.w3.org/2000/svg"><g><g fill="#dd636e"><circle cx="76.188" cy="245.732" r="35.956"/><circle cx="361.976" cy="375.628" r="35.956"/><circle cx="214.487" cy="320.789" r="35.956"/></g><path d="m212.41 356.691c-4.308-.245-8.636-1.276-12.801-3.169-18.078-8.217-26.07-29.528-17.853-47.606s29.532-26.079 47.61-17.863c4.165 1.893 7.787 4.476 10.805 7.56-14.398-.834-28.485 7.118-34.809 21.031-6.324 13.915-3.048 29.748 7.048 40.047z" fill="#da4a54"/><path d="m74.111 281.635c-4.308-.245-8.636-1.276-12.801-3.169-18.078-8.217-26.07-29.528-17.853-47.606s29.532-26.079 47.61-17.863c4.165 1.893 7.787 4.476 10.805 7.56-14.398-.834-28.485 7.118-34.809 21.031-6.325 13.915-3.049 29.747 7.048 40.047z" fill="#da4a54"/><path d="m359.898 411.53c-4.308-.245-8.636-1.276-12.801-3.169-18.078-8.217-26.07-29.528-17.853-47.606s29.532-26.079 47.61-17.863c4.165 1.893 7.787 4.476 10.805 7.56-14.398-.834-28.485 7.118-34.809 21.031-6.324 13.915-3.048 29.748 7.048 40.047z" fill="#da4a54"/><path d="m437.248 233.413c33.618-73.964-7.05-164.796-90.836-202.878s-178.96-8.993-212.578 64.971" fill="#b7e4fc"/><path d="m392.152 59.943c-67.916-9.171-133.596 21.263-160.337 80.097l-97.98-44.534c33.62-73.968 128.792-103.057 212.575-64.976 17.141 7.791 32.479 17.789 45.742 29.413z" fill="#97ccfa"/><g fill="#f5de87"><path d="m171.99 410.758 2.659 1.209c9.379 4.263 13.855 15.06 10.244 24.709l-11.107 29.679c-3.979 10.631-16.128 15.668-26.462 10.971l-6.608-3.003c-10.333-4.697-14.527-17.163-9.135-27.15l15.056-27.884c4.896-9.067 15.975-12.794 25.353-8.531z"/><path d="m267.633 427.431 2.907-.283c10.254-.998 19.529 6.115 21.226 16.276l5.22 31.256c1.87 11.196-6.134 21.633-17.431 22.732l-7.224.703c-11.297 1.099-21.163-7.6-21.486-18.946l-.903-31.676c-.293-10.298 7.437-19.065 17.691-20.062z"/><path d="m97.498 348.497 1.699 2.376c5.991 8.381 4.469 19.97-3.482 26.521l-24.459 20.149c-8.761 7.217-21.801 5.505-28.402-3.729l-4.221-5.905c-6.601-9.234-4-22.127 5.664-28.08l26.981-16.62c8.771-5.405 20.229-3.093 26.22 5.288z"/></g><path d="m491.963 330.111c-.35 4.038-.762 6.243-.762 6.243s-9.632 12.218-29.607 25.631c-8.602 5.79-19.13 11.785-31.627 17.122-15.195 6.49-32.193 7.397-48.037 2.709-31.101-9.189-91.923-29.051-166.56-62.975s-129.587-66.684-156.969-84.073c-13.938-8.849-24.446-22.252-29.546-37.962-4.203-12.939-6.603-24.817-7.901-35.098-3.029-23.869-.155-39.157-.155-39.157s1.236-1.576 3.75-4.203c7.5-7.881 26.373-25.26 57.494-38.549 15.185-6.49 32.193-7.386 48.027-2.709 31.101 9.189 91.923 29.051 166.56 62.975s129.586 66.684 156.969 84.073c13.938 8.859 24.446 22.262 29.546 37.972 10.25 31.553 9.786 56.824 8.818 68.001z" fill="#5e54ac"/><path d="m129.853 276.44c-31.686-17.097-55.979-31.839-71.451-41.669-13.937-8.859-24.442-22.255-29.542-37.969-13.944-42.939-8.061-74.252-8.061-74.252s19.721-25.023 61.241-42.752c15.192-6.491 32.197-7.395 48.032-2.711 17.579 5.192 44.661 13.801 78.377 26.431-6.784 1.736-14.335 6.412-22.013 13.783-29.551 28.332-47.601 58.899-47.601 58.899s-11.16 33.699-13.073 74.593c-.5 10.622.938 19.395 4.091 25.647z" fill="#453d81"/><path d="m491.963 330.111c-.35 4.038-.762 6.243-.762 6.243s-9.632 12.218-29.607 25.631l-440.64-200.278c-3.029-23.869-.155-39.157-.155-39.157s1.236-1.576 3.75-4.203c1.638.299 3.266.804 4.852 1.525z" fill="#453d81"/><path d="m482.598 355.286-470.402-213.806c-10.455-4.752-15.078-17.079-10.326-27.533s17.079-15.078 27.534-10.326l470.402 213.806c10.455 4.752 15.078 17.079 10.326 27.534s-17.08 15.077-27.534 10.325z" fill="#f5de87"/><path d="m141.873 200.421-129.677-58.941c-10.459-4.753-15.08-17.075-10.326-27.533s17.075-15.079 27.534-10.326l129.678 58.941c-10.459-4.754-22.78-.133-27.534 10.326-4.754 10.458-.133 22.779 10.325 27.533z" fill="#f1ce73"/></g></svg>